<svg xmlns="http://www.w3.org/2000/svg" xmlns:xlink="http://www.w3.org/1999/xlink" style="isolation:isolate" viewBox="0 0 1100 200" width="1100pt" height="200pt">
<defs>
<clipPath id="_clipPath_yjWpcValiZ1tV8UWt6bGnHg4Oxmmdi3U">
<rect width="1100" height="200"/>
</clipPath>
</defs>
<g clip-path="url(#_clipPath_yjWpcValiZ1tV8UWt6bGnHg4Oxmmdi3U)">
<g id="Group">
<path class="dark:text-gray-200" d=" M 304.467 152.5 L 304.467 152.5 L 304.467 152.5 Q 301.135 152.5 298.881 150.148 L 298.881 150.148 L 298.881 150.148 Q 296.627 147.796 296.627 144.464 L 296.627 144.464 L 296.627 59.008 L 296.627 59.008 Q 296.627 55.676 298.881 53.422 L 298.881 53.422 L 298.881 53.422 Q 301.135 51.168 304.467 51.168 L 304.467 51.168 L 304.467 51.168 Q 307.995 51.168 310.151 53.422 L 310.151 53.422 L 310.151 53.422 Q 312.307 55.676 312.307 59.008 L 312.307 59.008 L 312.307 84.88 L 309.955 80.764 L 309.955 80.764 Q 311.131 74.688 314.169 68.906 L 314.169 68.906 L 314.169 68.906 Q 317.207 63.124 321.911 58.518 L 321.911 58.518 L 321.911 58.518 Q 326.615 53.912 332.691 51.266 L 332.691 51.266 L 332.691 51.266 Q 338.767 48.62 346.019 48.62 L 346.019 48.62 L 346.019 48.62 Q 350.331 48.62 353.957 50.678 L 353.957 50.678 L 353.957 50.678 Q 357.583 52.736 357.583 56.46 L 357.583 56.46 L 357.583 56.46 Q 357.583 60.576 355.427 62.536 L 355.427 62.536 L 355.427 62.536 Q 353.271 64.496 350.527 64.496 L 350.527 64.496 L 350.527 64.496 Q 347.979 64.496 345.627 63.418 L 345.627 63.418 L 345.627 63.418 Q 343.275 62.34 339.747 62.34 L 339.747 62.34 L 339.747 62.34 Q 334.847 62.34 330.045 64.986 L 330.045 64.986 L 330.045 64.986 Q 325.243 67.632 321.225 72.532 L 321.225 72.532 L 321.225 72.532 Q 317.207 77.432 314.757 83.606 L 314.757 83.606 L 314.757 83.606 Q 312.307 89.78 312.307 96.836 L 312.307 96.836 L 312.307 144.464 L 312.307 144.464 Q 312.307 147.796 310.053 150.148 L 310.053 150.148 L 310.053 150.148 Q 307.799 152.5 304.467 152.5 Z  M 416.775 154.46 L 416.775 154.46 L 416.775 154.46 Q 401.095 154.46 389.335 147.796 L 389.335 147.796 L 389.335 147.796 Q 377.575 141.132 371.107 129.47 L 371.107 129.47 L 371.107 129.47 Q 364.639 117.808 364.639 102.52 L 364.639 102.52 L 364.639 102.52 Q 364.639 85.468 371.401 73.414 L 371.401 73.414 L 371.401 73.414 Q 378.163 61.36 388.943 54.99 L 388.943 54.99 L 388.943 54.99 Q 399.723 48.62 411.875 48.62 L 411.875 48.62 L 411.875 48.62 Q 421.087 48.62 429.417 51.952 L 429.417 51.952 L 429.417 51.952 Q 437.747 55.284 444.313 61.654 L 444.313 61.654 L 444.313 61.654 Q 450.879 68.024 454.799 76.942 L 454.799 76.942 L 454.799 76.942 Q 458.719 85.86 458.915 96.836 L 458.915 96.836 L 458.915 96.836 Q 458.719 99.972 456.367 102.128 L 456.367 102.128 L 456.367 102.128 Q 454.015 104.284 450.879 104.284 L 450.879 104.284 L 373.459 104.284 L 369.931 90.76 L 445.391 90.76 L 442.255 93.504 L 442.255 89.192 L 442.255 89.192 Q 441.667 81.156 437.061 75.374 L 437.061 75.374 L 437.061 75.374 Q 432.455 69.592 425.791 66.456 L 425.791 66.456 L 425.791 66.456 Q 419.127 63.32 411.875 63.32 L 411.875 63.32 L 411.875 63.32 Q 405.995 63.32 400.213 65.378 L 400.213 65.378 L 400.213 65.378 Q 394.431 67.436 389.825 72.042 L 389.825 72.042 L 389.825 72.042 Q 385.219 76.648 382.475 83.9 L 382.475 83.9 L 382.475 83.9 Q 379.731 91.152 379.731 101.344 L 379.731 101.344 L 379.731 101.344 Q 379.731 112.712 384.337 121.336 L 384.337 121.336 L 384.337 121.336 Q 388.943 129.96 397.175 134.958 L 397.175 134.958 L 397.175 134.958 Q 405.407 139.956 416.187 139.956 L 416.187 139.956 L 416.187 139.956 Q 423.243 139.956 428.339 138.192 L 428.339 138.192 L 428.339 138.192 Q 433.435 136.428 437.061 133.782 L 437.061 133.782 L 437.061 133.782 Q 440.687 131.136 443.235 128.392 L 443.235 128.392 L 443.235 128.392 Q 445.783 126.628 448.331 126.628 L 448.331 126.628 L 448.331 126.628 Q 451.075 126.628 453.035 128.588 L 453.035 128.588 L 453.035 128.588 Q 454.995 130.548 454.995 133.292 L 454.995 133.292 L 454.995 133.292 Q 454.995 136.624 451.859 139.172 L 451.859 139.172 L 451.859 139.172 Q 446.175 145.248 436.865 149.854 L 436.865 149.854 L 436.865 149.854 Q 427.555 154.46 416.775 154.46 Z  M 522.027 48.62 L 522.027 48.62 L 522.027 48.62 Q 530.651 48.62 537.903 51.462 L 537.903 51.462 L 537.903 51.462 Q 545.155 54.304 550.545 58.812 L 550.545 58.812 L 550.545 58.812 Q 555.935 63.32 558.973 68.22 L 558.973 68.22 L 558.973 68.22 Q 562.011 73.12 562.011 77.432 L 562.011 77.432 L 558.091 75.08 L 558.091 58.028 L 558.091 58.028 Q 558.091 54.696 560.345 52.442 L 560.345 52.442 L 560.345 52.442 Q 562.599 50.188 565.931 50.188 L 565.931 50.188 L 565.931 50.188 Q 569.459 50.188 571.615 52.442 L 571.615 52.442 L 571.615 52.442 Q 573.771 54.696 573.771 58.028 L 573.771 58.028 L 573.771 143.876 L 573.771 143.876 Q 573.771 159.948 567.009 170.532 L 567.009 170.532 L 567.009 170.532 Q 560.247 181.116 548.879 186.408 L 548.879 186.408 L 548.879 186.408 Q 537.511 191.7 523.595 191.7 L 523.595 191.7 L 523.595 191.7 Q 517.715 191.7 510.561 190.132 L 510.561 190.132 L 510.561 190.132 Q 503.407 188.564 497.919 186.31 L 497.919 186.31 L 497.919 186.31 Q 492.431 184.056 491.059 181.704 L 491.059 181.704 L 491.059 181.704 Q 488.119 179.744 487.433 177.294 L 487.433 177.294 L 487.433 177.294 Q 486.747 174.844 488.119 172.688 L 488.119 172.688 L 488.119 172.688 Q 490.079 169.944 492.823 169.944 L 492.823 169.944 L 492.823 169.944 Q 495.567 169.944 499.879 171.708 L 499.879 171.708 L 499.879 171.708 Q 501.839 172.296 505.563 173.668 L 505.563 173.668 L 505.563 173.668 Q 509.287 175.04 514.187 176.118 L 514.187 176.118 L 514.187 176.118 Q 519.087 177.196 523.791 177.196 L 523.791 177.196 L 523.791 177.196 Q 540.451 177.196 549.271 168.474 L 549.271 168.474 L 549.271 168.474 Q 558.091 159.752 558.091 145.444 L 558.091 145.444 L 558.091 127.216 L 560.247 128.196 L 560.247 128.196 Q 559.071 133.684 555.543 138.388 L 555.543 138.388 L 555.543 138.388 Q 552.015 143.092 546.821 146.718 L 546.821 146.718 L 546.821 146.718 Q 541.627 150.344 535.257 152.402 L 535.257 152.402 L 535.257 152.402 Q 528.887 154.46 522.419 154.46 L 522.419 154.46 L 522.419 154.46 Q 508.699 154.46 497.821 147.6 L 497.821 147.6 L 497.821 147.6 Q 486.943 140.74 480.573 128.784 L 480.573 128.784 L 480.573 128.784 Q 474.203 116.828 474.203 101.54 L 474.203 101.54 L 474.203 101.54 Q 474.203 86.056 480.573 74.1 L 480.573 74.1 L 480.573 74.1 Q 486.943 62.144 497.723 55.382 L 497.723 55.382 L 497.723 55.382 Q 508.503 48.62 522.027 48.62 Z  M 524.183 63.124 L 524.183 63.124 L 524.183 63.124 Q 513.991 63.124 506.151 68.122 L 506.151 68.122 L 506.151 68.122 Q 498.311 73.12 493.803 81.744 L 493.803 81.744 L 493.803 81.744 Q 489.295 90.368 489.295 101.54 L 489.295 101.54 L 489.295 101.54 Q 489.295 112.32 493.803 121.042 L 493.803 121.042 L 493.803 121.042 Q 498.311 129.764 506.151 134.86 L 506.151 134.86 L 506.151 134.86 Q 513.991 139.956 524.183 139.956 L 524.183 139.956 L 524.183 139.956 Q 534.375 139.956 542.215 134.958 L 542.215 134.958 L 542.215 134.958 Q 550.055 129.96 554.563 121.336 L 554.563 121.336 L 554.563 121.336 Q 559.071 112.712 559.071 101.54 L 559.071 101.54 L 559.071 101.54 Q 559.071 90.172 554.563 81.548 L 554.563 81.548 L 554.563 81.548 Q 550.055 72.924 542.215 68.024 L 542.215 68.024 L 542.215 68.024 Q 534.375 63.124 524.183 63.124 Z  M 617.871 57.44 L 617.871 144.464 L 617.871 144.464 Q 617.871 147.796 615.617 150.148 L 615.617 150.148 L 615.617 150.148 Q 613.363 152.5 610.031 152.5 L 610.031 152.5 L 610.031 152.5 Q 606.503 152.5 604.347 150.148 L 604.347 150.148 L 604.347 150.148 Q 602.191 147.796 602.191 144.464 L 602.191 144.464 L 602.191 57.44 L 602.191 57.44 Q 602.191 54.108 604.445 51.854 L 604.445 51.854 L 604.445 51.854 Q 606.699 49.6 610.031 49.6 L 610.031 49.6 L 610.031 49.6 Q 613.363 49.6 615.617 51.854 L 615.617 51.854 L 615.617 51.854 Q 617.871 54.108 617.871 57.44 L 617.871 57.44 L 617.871 57.44 Z  M 610.031 36.468 L 610.031 36.468 L 610.031 36.468 Q 605.131 36.468 602.779 34.508 L 602.779 34.508 L 602.779 34.508 Q 600.427 32.548 600.427 28.432 L 600.427 28.432 L 600.427 25.688 L 600.427 25.688 Q 600.427 21.572 602.975 19.612 L 602.975 19.612 L 602.975 19.612 Q 605.523 17.652 610.227 17.652 L 610.227 17.652 L 610.227 17.652 Q 614.931 17.652 617.283 19.612 L 617.283 19.612 L 617.283 19.612 Q 619.635 21.572 619.635 25.688 L 619.635 25.688 L 619.635 28.432 L 619.635 28.432 Q 619.635 32.548 617.185 34.508 L 617.185 34.508 L 617.185 34.508 Q 614.735 36.468 610.031 36.468 Z  M 640.411 136.428 L 640.411 136.428 L 640.411 136.428 Q 638.647 133.88 638.843 131.038 L 638.843 131.038 L 638.843 131.038 Q 639.039 128.196 642.175 126.04 L 642.175 126.04 L 642.175 126.04 Q 644.135 124.668 646.781 124.864 L 646.781 124.864 L 646.781 124.864 Q 649.427 125.06 651.583 127.412 L 651.583 127.412 L 651.583 127.412 Q 657.071 133.88 664.127 137.702 L 664.127 137.702 L 664.127 137.702 Q 671.183 141.524 681.375 141.524 L 681.375 141.524 L 681.375 141.524 Q 686.079 141.328 690.783 139.956 L 690.783 139.956 L 690.783 139.956 Q 695.487 138.584 698.721 135.154 L 698.721 135.154 L 698.721 135.154 Q 701.955 131.724 701.955 126.04 L 701.955 126.04 L 701.955 126.04 Q 701.955 120.552 698.623 117.318 L 698.623 117.318 L 698.623 117.318 Q 695.291 114.084 689.999 112.026 L 689.999 112.026 L 689.999 112.026 Q 684.707 109.968 678.435 108.4 L 678.435 108.4 L 678.435 108.4 Q 671.967 106.636 665.695 104.382 L 665.695 104.382 L 665.695 104.382 Q 659.423 102.128 654.425 98.698 L 654.425 98.698 L 654.425 98.698 Q 649.427 95.268 646.389 90.074 L 646.389 90.074 L 646.389 90.074 Q 643.351 84.88 643.351 77.432 L 643.351 77.432 L 643.351 77.432 Q 643.351 68.612 648.153 62.144 L 648.153 62.144 L 648.153 62.144 Q 652.955 55.676 661.089 52.148 L 661.089 52.148 L 661.089 52.148 Q 669.223 48.62 678.827 48.62 L 678.827 48.62 L 678.827 48.62 Q 684.315 48.62 690.293 49.894 L 690.293 49.894 L 690.293 49.894 Q 696.271 51.168 701.955 54.206 L 701.955 54.206 L 701.955 54.206 Q 707.639 57.244 711.951 62.536 L 711.951 62.536 L 711.951 62.536 Q 713.715 64.496 713.911 67.436 L 713.911 67.436 L 713.911 67.436 Q 714.107 70.376 711.363 72.728 L 711.363 72.728 L 711.363 72.728 Q 709.207 74.296 706.561 74.1 L 706.561 74.1 L 706.561 74.1 Q 703.915 73.904 702.151 72.14 L 702.151 72.14 L 702.151 72.14 Q 698.035 67.24 691.861 64.594 L 691.861 64.594 L 691.861 64.594 Q 685.687 61.948 678.239 61.948 L 678.239 61.948 L 678.239 61.948 Q 673.535 61.948 669.027 63.32 L 669.027 63.32 L 669.027 63.32 Q 664.519 64.692 661.481 67.926 L 661.481 67.926 L 661.481 67.926 Q 658.443 71.16 658.443 76.844 L 658.443 76.844 L 658.443 76.844 Q 658.639 82.136 661.971 85.468 L 661.971 85.468 L 661.971 85.468 Q 665.303 88.8 670.987 90.858 L 670.987 90.858 L 670.987 90.858 Q 676.671 92.916 683.531 94.876 L 683.531 94.876 L 683.531 94.876 Q 689.803 96.444 695.585 98.502 L 695.585 98.502 L 695.585 98.502 Q 701.367 100.56 706.071 103.892 L 706.071 103.892 L 706.071 103.892 Q 710.775 107.224 713.519 112.418 L 713.519 112.418 L 713.519 112.418 Q 716.263 117.612 716.263 125.452 L 716.263 125.452 L 716.263 125.452 Q 716.263 134.468 711.167 141.034 L 711.167 141.034 L 711.167 141.034 Q 706.071 147.6 697.741 151.03 L 697.741 151.03 L 697.741 151.03 Q 689.411 154.46 679.807 154.46 L 679.807 154.46 L 679.807 154.46 Q 669.027 154.46 658.541 150.344 L 658.541 150.344 L 658.541 150.344 Q 648.055 146.228 640.411 136.428 Z  M 735.079 51.756 L 735.079 51.756 L 781.139 51.756 L 781.139 51.756 Q 784.275 51.756 786.333 53.912 L 786.333 53.912 L 786.333 53.912 Q 788.391 56.068 788.391 59.008 L 788.391 59.008 L 788.391 59.008 Q 788.391 62.144 786.333 64.202 L 786.333 64.202 L 786.333 64.202 Q 784.275 66.26 781.139 66.26 L 781.139 66.26 L 735.079 66.26 L 735.079 66.26 Q 732.139 66.26 729.983 64.104 L 729.983 64.104 L 729.983 64.104 Q 727.827 61.948 727.827 58.812 L 727.827 58.812 L 727.827 58.812 Q 727.827 55.872 729.983 53.814 L 729.983 53.814 L 729.983 53.814 Q 732.139 51.756 735.079 51.756 Z  M 755.659 25.1 L 755.659 25.1 L 755.659 25.1 Q 758.991 25.1 761.147 27.354 L 761.147 27.354 L 761.147 27.354 Q 763.303 29.608 763.303 32.94 L 763.303 32.94 L 763.303 127.608 L 763.303 127.608 Q 763.303 132.312 764.675 134.664 L 764.675 134.664 L 764.675 134.664 Q 766.047 137.016 768.301 137.898 L 768.301 137.898 L 768.301 137.898 Q 770.555 138.78 772.711 138.78 L 772.711 138.78 L 772.711 138.78 Q 774.671 138.78 776.141 138.094 L 776.141 138.094 L 776.141 138.094 Q 777.611 137.408 779.571 137.408 L 779.571 137.408 L 779.571 137.408 Q 781.531 137.408 783.197 139.27 L 783.197 139.27 L 783.197 139.27 Q 784.863 141.132 784.863 144.072 L 784.863 144.072 L 784.863 144.072 Q 784.863 147.6 780.747 150.05 L 780.747 150.05 L 780.747 150.05 Q 776.631 152.5 771.535 152.5 L 771.535 152.5 L 771.535 152.5 Q 768.791 152.5 764.773 152.108 L 764.773 152.108 L 764.773 152.108 Q 760.755 151.716 756.835 149.56 L 756.835 149.56 L 756.835 149.56 Q 752.915 147.404 750.269 142.406 L 750.269 142.406 L 750.269 142.406 Q 747.623 137.408 747.623 128.392 L 747.623 128.392 L 747.623 32.94 L 747.623 32.94 Q 747.623 29.608 749.975 27.354 L 749.975 27.354 L 749.975 27.354 Q 752.327 25.1 755.659 25.1 Z  M 817.987 152.5 L 817.987 152.5 L 817.987 152.5 Q 814.655 152.5 812.401 150.148 L 812.401 150.148 L 812.401 150.148 Q 810.147 147.796 810.147 144.464 L 810.147 144.464 L 810.147 59.008 L 810.147 59.008 Q 810.147 55.676 812.401 53.422 L 812.401 53.422 L 812.401 53.422 Q 814.655 51.168 817.987 51.168 L 817.987 51.168 L 817.987 51.168 Q 821.515 51.168 823.671 53.422 L 823.671 53.422 L 823.671 53.422 Q 825.827 55.676 825.827 59.008 L 825.827 59.008 L 825.827 84.88 L 823.475 80.764 L 823.475 80.764 Q 824.651 74.688 827.689 68.906 L 827.689 68.906 L 827.689 68.906 Q 830.727 63.124 835.431 58.518 L 835.431 58.518 L 835.431 58.518 Q 840.135 53.912 846.211 51.266 L 846.211 51.266 L 846.211 51.266 Q 852.287 48.62 859.539 48.62 L 859.539 48.62 L 859.539 48.62 Q 863.851 48.62 867.477 50.678 L 867.477 50.678 L 867.477 50.678 Q 871.103 52.736 871.103 56.46 L 871.103 56.46 L 871.103 56.46 Q 871.103 60.576 868.947 62.536 L 868.947 62.536 L 868.947 62.536 Q 866.791 64.496 864.047 64.496 L 864.047 64.496 L 864.047 64.496 Q 861.499 64.496 859.147 63.418 L 859.147 63.418 L 859.147 63.418 Q 856.795 62.34 853.267 62.34 L 853.267 62.34 L 853.267 62.34 Q 848.367 62.34 843.565 64.986 L 843.565 64.986 L 843.565 64.986 Q 838.763 67.632 834.745 72.532 L 834.745 72.532 L 834.745 72.532 Q 830.727 77.432 828.277 83.606 L 828.277 83.606 L 828.277 83.606 Q 825.827 89.78 825.827 96.836 L 825.827 96.836 L 825.827 144.464 L 825.827 144.464 Q 825.827 147.796 823.573 150.148 L 823.573 150.148 L 823.573 150.148 Q 821.319 152.5 817.987 152.5 Z  M 968.907 50.188 L 968.907 50.188 L 968.907 50.188 Q 972.435 50.188 974.591 52.442 L 974.591 52.442 L 974.591 52.442 Q 976.747 54.696 976.747 58.028 L 976.747 58.028 L 976.747 144.464 L 976.747 144.464 Q 976.747 147.796 974.493 150.148 L 974.493 150.148 L 974.493 150.148 Q 972.239 152.5 968.907 152.5 L 968.907 152.5 L 968.907 152.5 Q 965.575 152.5 963.321 150.148 L 963.321 150.148 L 963.321 150.148 Q 961.067 147.796 961.067 144.464 L 961.067 144.464 L 961.067 125.844 L 964.791 125.452 L 964.791 125.452 Q 964.791 129.764 961.851 134.86 L 961.851 134.86 L 961.851 134.86 Q 958.911 139.956 953.815 144.366 L 953.815 144.366 L 953.815 144.366 Q 948.719 148.776 941.859 151.618 L 941.859 151.618 L 941.859 151.618 Q 934.999 154.46 926.963 154.46 L 926.963 154.46 L 926.963 154.46 Q 913.635 154.46 902.953 147.502 L 902.953 147.502 L 902.953 147.502 Q 892.271 140.544 886.195 128.588 L 886.195 128.588 L 886.195 128.588 Q 880.119 116.632 880.119 101.344 L 880.119 101.344 L 880.119 101.344 Q 880.119 85.86 886.293 74.002 L 886.293 74.002 L 886.293 74.002 Q 892.467 62.144 902.953 55.382 L 902.953 55.382 L 902.953 55.382 Q 913.439 48.62 926.571 48.62 L 926.571 48.62 L 926.571 48.62 Q 934.999 48.62 942.251 51.364 L 942.251 51.364 L 942.251 51.364 Q 949.503 54.108 954.893 58.812 L 954.893 58.812 L 954.893 58.812 Q 960.283 63.516 963.223 69.2 L 963.223 69.2 L 963.223 69.2 Q 966.163 74.884 966.163 80.568 L 966.163 80.568 L 961.067 79.392 L 961.067 58.028 L 961.067 58.028 Q 961.067 54.696 963.321 52.442 L 963.321 52.442 L 963.321 52.442 Q 965.575 50.188 968.907 50.188 Z  M 928.531 139.956 L 928.531 139.956 L 928.531 139.956 Q 938.331 139.956 945.877 134.86 L 945.877 134.86 L 945.877 134.86 Q 953.423 129.764 957.735 121.042 L 957.735 121.042 L 957.735 121.042 Q 962.047 112.32 962.047 101.344 L 962.047 101.344 L 962.047 101.344 Q 962.047 90.564 957.735 81.842 L 957.735 81.842 L 957.735 81.842 Q 953.423 73.12 945.877 68.122 L 945.877 68.122 L 945.877 68.122 Q 938.331 63.124 928.531 63.124 L 928.531 63.124 L 928.531 63.124 Q 918.927 63.124 911.381 68.024 L 911.381 68.024 L 911.381 68.024 Q 903.835 72.924 899.523 81.548 L 899.523 81.548 L 899.523 81.548 Q 895.211 90.172 895.211 101.344 L 895.211 101.344 L 895.211 101.344 Q 895.211 112.32 899.523 121.042 L 899.523 121.042 L 899.523 121.042 Q 903.835 129.764 911.381 134.86 L 911.381 134.86 L 911.381 134.86 Q 918.927 139.956 928.531 139.956 Z  M 1049.855 48.62 L 1049.855 48.62 L 1049.855 48.62 Q 1059.851 48.62 1067.887 50.776 L 1067.887 50.776 L 1067.887 50.776 Q 1075.923 52.932 1080.627 56.656 L 1080.627 56.656 L 1080.627 56.656 Q 1085.331 60.38 1085.331 65.084 L 1085.331 65.084 L 1085.331 65.084 Q 1085.331 67.632 1083.665 69.984 L 1083.665 69.984 L 1083.665 69.984 Q 1081.999 72.336 1078.863 72.336 L 1078.863 72.336 L 1078.863 72.336 Q 1076.315 72.336 1074.649 71.356 L 1074.649 71.356 L 1074.649 71.356 Q 1072.983 70.376 1071.513 68.808 L 1071.513 68.808 L 1071.513 68.808 Q 1070.043 67.24 1067.495 66.064 L 1067.495 66.064 L 1067.495 66.064 Q 1065.143 64.692 1060.635 63.908 L 1060.635 63.908 L 1060.635 63.908 Q 1056.127 63.124 1051.423 63.124 L 1051.423 63.124 L 1051.423 63.124 Q 1040.839 63.124 1032.607 68.22 L 1032.607 68.22 L 1032.607 68.22 Q 1024.375 73.316 1019.769 81.94 L 1019.769 81.94 L 1019.769 81.94 Q 1015.163 90.564 1015.163 101.54 L 1015.163 101.54 L 1015.163 101.54 Q 1015.163 112.516 1019.671 121.14 L 1019.671 121.14 L 1019.671 121.14 Q 1024.179 129.764 1032.215 134.86 L 1032.215 134.86 L 1032.215 134.86 Q 1040.251 139.956 1050.835 139.956 L 1050.835 139.956 L 1050.835 139.956 Q 1057.695 139.956 1061.713 138.78 L 1061.713 138.78 L 1061.713 138.78 Q 1065.731 137.604 1068.671 136.036 L 1068.671 136.036 L 1068.671 136.036 Q 1072.003 134.076 1073.865 132.116 L 1073.865 132.116 L 1073.865 132.116 Q 1075.727 130.156 1079.059 130.156 L 1079.059 130.156 L 1079.059 130.156 Q 1082.391 130.156 1084.155 132.312 L 1084.155 132.312 L 1084.155 132.312 Q 1085.919 134.468 1085.919 137.604 L 1085.919 137.604 L 1085.919 137.604 Q 1085.919 141.132 1081.019 145.052 L 1081.019 145.052 L 1081.019 145.052 Q 1076.119 148.972 1067.789 151.716 L 1067.789 151.716 L 1067.789 151.716 Q 1059.459 154.46 1049.071 154.46 L 1049.071 154.46 L 1049.071 154.46 Q 1034.175 154.46 1023.003 147.502 L 1023.003 147.502 L 1023.003 147.502 Q 1011.831 140.544 1005.657 128.49 L 1005.657 128.49 L 1005.657 128.49 Q 999.483 116.436 999.483 101.54 L 999.483 101.54 L 999.483 101.54 Q 999.483 86.644 1005.853 74.688 L 1005.853 74.688 L 1005.853 74.688 Q 1012.223 62.732 1023.591 55.676 L 1023.591 55.676 L 1023.591 55.676 Q 1034.959 48.62 1049.855 48.62 Z " id="Compound Path" fill="rgb(0,0,0)"/>
<g id="Group">
<circle vector-effect="non-scaling-stroke" cx="142.57300857157813" cy="99.9999999999998" r="90.44021840392102" id="Ellipse" fill="rgb(255,97,160)"/>
<path d="M 151.007 42 L 226.313 42 C 235.214 42 242.44 48.65 242.44 56.84 L 242.44 56.84 C 242.44 65.03 235.214 71.68 226.313 71.68 L 151.007 71.68 C 142.106 71.68 134.88 65.03 134.88 56.84 L 134.88 56.84 C 134.88 48.65 142.106 42 151.007 42 Z" style="stroke:none;fill:#7027B0;stroke-miterlimit:10;"/>
<path d="M 55.657 85.16 L 111.343 85.16 C 119.532 85.16 126.18 91.81 126.18 100 L 126.18 100 C 126.18 108.19 119.532 114.84 111.343 114.84 L 55.657 114.84 C 47.468 114.84 40.82 108.19 40.82 100 L 40.82 100 C 40.82 91.81 47.468 85.16 55.657 85.16 Z" style="stroke:none;fill:#7027B0;stroke-miterlimit:10;"/>
<path d="M 50.526 130.31 L 151.414 130.31 C 159.602 130.31 166.25 136.957 166.25 145.145 L 166.25 145.145 C 166.25 153.333 159.602 159.98 151.414 159.98 L 50.526 159.98 C 42.338 159.98 35.69 153.333 35.69 145.145 L 35.69 145.145 C 35.69 136.957 42.338 130.31 50.526 130.31 Z" style="stroke:none;fill:#7027B0;stroke-miterlimit:10;"/>
</g>
</g>
</g>
</svg>
