<?xml version="1.0" encoding="UTF-8" standalone="no"?><!-- Generator: Gravit.io --><svg xmlns="http://www.w3.org/2000/svg" xmlns:xlink="http://www.w3.org/1999/xlink" style="isolation:isolate" viewBox="0 0 210 210" width="210pt" height="210pt"><defs><clipPath id="_clipPath_3K3xL2m5XpzZZy32YJNdcGzC9NY7NKcg"><rect width="210" height="210"/></clipPath></defs><g clip-path="url(#_clipPath_3K3xL2m5XpzZZy32YJNdcGzC9NY7NKcg)"><g id="Group"><circle vector-effect="non-scaling-stroke" cx="108.50654236229549" cy="105" r="90.44021840392102" id="Ellipse" fill="rgb(255,97,160)"/><path d="M 116.938 47 L 192.252 47 C 201.153 47 208.38 53.65 208.38 61.84 L 208.38 61.84 C 208.38 70.03 201.153 76.68 192.252 76.68 L 116.938 76.68 C 108.037 76.68 100.81 70.03 100.81 61.84 L 100.81 61.84 C 100.81 53.65 108.037 47 116.938 47 Z" style="stroke:none;fill:#7027B0;stroke-miterlimit:10;"/><path d="M 21.595 90.16 L 77.275 90.16 C 85.462 90.16 92.11 96.81 92.11 105 L 92.11 105 C 92.11 113.19 85.462 119.84 77.275 119.84 L 21.595 119.84 C 13.408 119.84 6.76 113.19 6.76 105 L 6.76 105 C 6.76 96.81 13.408 90.16 21.595 90.16 Z" style="stroke:none;fill:#7027B0;stroke-miterlimit:10;"/><path d="M 16.456 135.31 L 117.344 135.31 C 125.532 135.31 132.18 141.957 132.18 150.145 L 132.18 150.145 C 132.18 158.333 125.532 164.98 117.344 164.98 L 16.456 164.98 C 8.268 164.98 1.62 158.333 1.62 150.145 L 1.62 150.145 C 1.62 141.957 8.268 135.31 16.456 135.31 Z" style="stroke:none;fill:#7027B0;stroke-miterlimit:10;"/></g></g></svg>